<mxfile host="65bd71144e">
    <diagram id="C5RBs43oDa-KdzZeNtuy" name="RPI Service Flow">
        <mxGraphModel dx="1223" dy="898" grid="1" gridSize="10" guides="1" tooltips="1" connect="1" arrows="1" fold="1" page="1" pageScale="1" pageWidth="827" pageHeight="1169" math="0" shadow="0">
            <root>
                <mxCell id="WIyWlLk6GJQsqaUBKTNV-0"/>
                <mxCell id="WIyWlLk6GJQsqaUBKTNV-1" parent="WIyWlLk6GJQsqaUBKTNV-0"/>
                
                <!-- System Boot -->
                <mxCell id="start" value="RPI Boot" style="ellipse;whiteSpace=wrap;html=1;" vertex="1" parent="WIyWlLk6GJQsqaUBKTNV-1">
                    <mxGeometry x="320" y="20" width="120" height="40" as="geometry"/>
                </mxCell>

                <!-- Network Service -->
                <mxCell id="network" value="Network Service&#10;(network.target)" style="rounded=0;whiteSpace=wrap;html=1;" vertex="1" parent="WIyWlLk6GJQsqaUBKTNV-1">
                    <mxGeometry x="320" y="100" width="120" height="60" as="geometry"/>
                </mxCell>

                <!-- MediaMTX Service -->
                <mxCell id="mediamtx" value="MediaMTX Service&#10;(/home/ad/Desktop/WS/mediamtx)" style="rounded=0;whiteSpace=wrap;html=1;fillColor=#dae8fc;strokeColor=#6c8ebf;" vertex="1" parent="WIyWlLk6GJQsqaUBKTNV-1">
                    <mxGeometry x="320" y="200" width="120" height="60" as="geometry"/>
                </mxCell>

                <!-- Streaming Service -->
                <mxCell id="streaming" value="Camera Streaming Service&#10;(Python script)" style="rounded=0;whiteSpace=wrap;html=1;fillColor=#d5e8d4;strokeColor=#82b366;" vertex="1" parent="WIyWlLk6GJQsqaUBKTNV-1">
                    <mxGeometry x="320" y="300" width="120" height="60" as="geometry"/>
                </mxCell>

                <!-- MediaMTX Details -->
                <mxCell id="mediamtx_details" value="mediamtx.service:&#10;- User: ad&#10;- WorkDir: /home/ad/Desktop/WS&#10;- Auto-restart on failure&#10;- Logs to syslog" style="shape=note;whiteSpace=wrap;html=1;backgroundOutline=1;darkOpacity=0.05;fillColor=#dae8fc;strokeColor=#6c8ebf;" vertex="1" parent="WIyWlLk6GJQsqaUBKTNV-1">
                    <mxGeometry x="500" y="180" width="200" height="100" as="geometry"/>
                </mxCell>

                <!-- Streaming Details -->
                <mxCell id="streaming_details" value="streaming.service:&#10;- User: ad&#10;- WorkDir: /home/ad/Desktop/WS/stream_rtsp&#10;- Runs: main.py&#10;- Auto-restart on failure (5s delay)&#10;- Depends on mediamtx.service" style="shape=note;whiteSpace=wrap;html=1;backgroundOutline=1;darkOpacity=0.05;fillColor=#d5e8d4;strokeColor=#82b366;" vertex="1" parent="WIyWlLk6GJQsqaUBKTNV-1">
                    <mxGeometry x="500" y="300" width="240" height="110" as="geometry"/>
                </mxCell>

                <!-- Error Check MediaMTX -->
                <mxCell id="error_mtx" value="Error?" style="rhombus;whiteSpace=wrap;html=1;fillColor=#dae8fc;strokeColor=#6c8ebf;" vertex="1" parent="WIyWlLk6GJQsqaUBKTNV-1">
                    <mxGeometry x="180" y="190" width="80" height="80" as="geometry"/>
                </mxCell>

                <!-- Error Check Streaming -->
                <mxCell id="error_stream" value="Error?" style="rhombus;whiteSpace=wrap;html=1;fillColor=#d5e8d4;strokeColor=#82b366;" vertex="1" parent="WIyWlLk6GJQsqaUBKTNV-1">
                    <mxGeometry x="180" y="290" width="80" height="80" as="geometry"/>
                </mxCell>

                <!-- Connections -->
                <mxCell id="conn1" value="" style="endArrow=classic;html=1;exitX=0.5;exitY=1;entryX=0.5;entryY=0;" edge="1" source="start" target="network" parent="WIyWlLk6GJQsqaUBKTNV-1"/>
                <mxCell id="conn2" value="" style="endArrow=classic;html=1;exitX=0.5;exitY=1;entryX=0.5;entryY=0;" edge="1" source="network" target="mediamtx" parent="WIyWlLk6GJQsqaUBKTNV-1"/>
                <mxCell id="conn3" value="" style="endArrow=classic;html=1;exitX=0.5;exitY=1;entryX=0.5;entryY=0;" edge="1" source="mediamtx" target="streaming" parent="WIyWlLk6GJQsqaUBKTNV-1"/>

                <!-- Error Handling MediaMTX -->
                <mxCell id="err1" value="" style="endArrow=classic;html=1;exitX=0;exitY=0.5;entryX=1;entryY=0.5;" edge="1" source="mediamtx" target="error_mtx" parent="WIyWlLk6GJQsqaUBKTNV-1"/>
                <mxCell id="restart1" value="Restart" style="endArrow=classic;html=1;exitX=0;exitY=0.5;entryX=0;entryY=0.5;" edge="1" source="error_mtx" target="mediamtx" parent="WIyWlLk6GJQsqaUBKTNV-1">
                    <mxGeometry relative="1" as="geometry">
                        <Array as="points">
                            <mxPoint x="140" y="230"/>
                        </Array>
                    </mxGeometry>
                </mxCell>

                <!-- Error Handling Streaming -->
                <mxCell id="err2" value="" style="endArrow=classic;html=1;exitX=0;exitY=0.5;entryX=1;entryY=0.5;" edge="1" source="streaming" target="error_stream" parent="WIyWlLk6GJQsqaUBKTNV-1"/>
                <mxCell id="restart2" value="Restart&#10;(5s delay)" style="endArrow=classic;html=1;exitX=0;exitY=0.5;entryX=0;entryY=0.5;" edge="1" source="error_stream" target="streaming" parent="WIyWlLk6GJQsqaUBKTNV-1">
                    <mxGeometry relative="1" as="geometry">
                        <Array as="points">
                            <mxPoint x="140" y="330"/>
                        </Array>
                    </mxGeometry>
                </mxCell>

            </root>
        </mxGraphModel>
    </diagram>
</mxfile>